<svg xmlns="http://www.w3.org/2000/svg" xmlns:xlink="http://www.w3.org/1999/xlink" version="1.1" x="0px" y="0px" viewBox="0 0 76 125" style="enable-background:new 0 0 76 100;" xml:space="preserve"><g><path d="M61.4,36.4c-1.2,0-2.5,0.2-3.5,0.7c-1-3-3.7-5-6.9-5.2c-1.5-0.2-2.9,0.2-4.2,1c-1.3-2.2-3.5-3.7-6.2-3.9c-1,0-2,0.2-3,0.5   V22c0-4.2-3.2-7.7-7.2-8.1c-2.2-0.2-4.2,0.7-5.7,2c-1.5,1.5-2.4,3.5-2.4,5.5V50l-2.2-2c-3.5-3-6.9-3.5-9.7-1.8   c-1.8,1-3,2.7-3.5,4.9c-0.5,2.2,0,4.4,1.2,6.2l18.1,27.4v7.2c0,1.3,1.2,2.5,2.5,2.5h31.1c1.3,0,2.5-1.2,2.5-2.5v-9.6l5.2-9.6   c0.8-1.7,1.3-3.4,1.3-5.2v-23C68.8,40.1,65.6,36.8,61.4,36.4z M63.8,67.5L63.8,67.5c0,1-0.3,2-0.7,2.9l-5.7,10.1   c-0.2,0.3-0.3,0.8-0.3,1.2v7.7H31.2V84c0-0.5-0.2-1-0.3-1.3L12,54.7c-0.5-0.7-0.7-1.5-0.5-2.4c0.2-0.3,0.3-1.2,1.2-1.7   c0.3-0.2,1.3-0.8,4,1.3l4.2,3.7c0.8,0.7,1.2,1.7,1.2,2.5V60c0,1.3,1.2,2.5,2.5,2.5c1.3,0,2.5-1.2,2.5-2.5v-4.4v-3V21.5   c0-0.7,0.3-1.3,0.8-1.8c0.5-0.5,1.2-0.8,2-0.7c1.3,0,2.5,1.3,2.5,3V31v5.7v11.8c0,1.3,1.2,2.5,2.5,2.5s2.5-1.2,2.5-2.5V36.8   c0-0.7,0.3-1.3,0.8-1.8c0.5-0.5,1.2-0.8,2-0.7c1.3,0,2.5,1.3,2.5,3v0.7v2v8.9c0,1.3,1.2,2.5,2.5,2.5c1.3,0,2.5-1.2,2.5-2.5V40   c0-0.7,0.3-1.5,0.8-2c0.5-0.5,1.2-0.8,2-0.7c1.3,0,2.5,1.3,2.5,3v1.2v3.2v7.6c0,1.3,1.2,2.5,2.5,2.5s2.5-1.2,2.5-2.5v-7.6   c0-0.7,0.3-1.3,0.8-1.8c0.5-0.5,1.2-0.8,2-0.7c1.3,0,2.5,1.3,2.5,3L63.8,67.5L63.8,67.5z"/><path d="M43.4,27c1.3,0.3,2.7-0.7,3-2c0.2-1.2,0.3-2.2,0.3-3.4C46.8,12.4,39.4,5,30.1,5s-16.6,7.4-16.6,16.6c0,2.9,0.8,5.7,2.2,8.2   c0.5,0.8,1.3,1.3,2.2,1.3c0.5,0,0.8-0.2,1.2-0.3c1.2-0.7,1.7-2.2,1-3.4c-1-1.7-1.5-3.7-1.5-5.7c0-6.4,5.2-11.6,11.6-11.6   s11.6,5.2,11.6,11.6c0,0.8,0,1.5-0.2,2.4C41.1,25.5,41.9,26.8,43.4,27z"/></g></svg>